PathFileType	4	(x/y/z)	S10_BK_Cal_T01
DataRate	CameraRate	NumFrames	NumMarkers	Units	OrigDataRate	OrigDataStartFrame	OrigNumFrames
240	240	5	51	mm	240	301	2400
Frame#	Time	Sternum			R.Acromium			L.Acromium			Top.Head			R.ASIS			L.ASIS			R.PSIS			L.PSIS			R.Great.Tro			L.Great.Tro			R.Iliac.Crest			L.Iliac.Crest			V.Sacral			R.Thigh.Upper.Post			R.Thigh.Lower.Ant			R.Thigh.Lower.Post			R.Thigh.Upper.Ant			R.Knee.Lat			R.Knee.Med			R.Shank.Upper.Post			R.Shank.Lower.Ant			R.Shank.Lower.Post			R.Shank.Upper.Ant			R.Ankle.Lat			R.Ankle.Med			R.Heel.Upper			R.Heel.Med			R.Heel.Lat			R.Toe.Lat			R.Toe.Med			R.Toe.Tip			L.Thigh.Upper.Post			L.Thigh.Lower.Ant			L.Thigh.Lower.Post			L.Thigh.Upper.Ant			L.Knee.Lat			L.Knee.Med			L.Shank.Upper.Post			L.Shank.Lower.Ant			L.Shank.Lower.Post			L.Shank.Upper.Ant			L.Ankle.Lat			L.Ankle.Med			L.Heel.Upper			L.Heel.Med			L.Heel.Lat			L.Toe.Lat			L.Toe.Med			L.Toe.Tip			Cervical.Spine			Back			
		X1	Y1	Z1	X2	Y2	Z2	X3	Y3	Z3	X4	Y4	Z4	X5	Y5	Z5	X6	Y6	Z6	X7	Y7	Z7	X8	Y8	Z8	X9	Y9	Z9	X10	Y10	Z10	X11	Y11	Z11	X12	Y12	Z12	X13	Y13	Z13	X14	Y14	Z14	X15	Y15	Z15	X16	Y16	Z16	X17	Y17	Z17	X18	Y18	Z18	X19	Y19	Z19	X20	Y20	Z20	X21	Y21	Z21	X22	Y22	Z22	X23	Y23	Z23	X24	Y24	Z24	X25	Y25	Z25	X26	Y26	Z26	X27	Y27	Z27	X28	Y28	Z28	X29	Y29	Z29	X30	Y30	Z30	X31	Y31	Z31	X32	Y32	Z32	X33	Y33	Z33	X34	Y34	Z34	X35	Y35	Z35	X36	Y36	Z36	X37	Y37	Z37	X38	Y38	Z38	X39	Y39	Z39	X40	Y40	Z40	X41	Y41	Z41	X42	Y42	Z42	X43	Y43	Z43	X44	Y44	Z44	X45	Y45	Z45	X46	Y46	Z46	X47	Y47	Z47	X48	Y48	Z48	X49	Y49	Z49	X50	Y50	Z50	X51	Y51	Z51	

301	1.25	850.45	1247.3	302.93	721.39	1409.1	450.14	731.1	1432.6	143.79	719.29	1726.1	350.32	764.76	961.9	414.9	766.88	974.09	182.6	570.78	1025.7	329.71	580.3	1028.3	247.46	683.67	905.77	492.49	694.07	921.53	122.31	687.84	1061.9	459.28	715.51	1062.6	153.85	544.66	1000.2	291.63	738.07	711.43	523.14	815.98	648.32	498.44	758.38	623.57	527.6	797.23	737.49	488.34	791.75	497.95	506.34	794.75	488.36	379.92	674.28	298.36	521.58	722.03	219.97	517.33	656.11	226.32	524.29	746.47	293.09	516.68	644.67	112.3	513.71	668.41	110.15	436.16	581.95	63.695	467.01	595.1	36.473	440.92	582.75	39.451	501.56	748.73	38.838	567.4	789.46	44.696	462.72	842.74	61.576	512.17	713.32	654.71	105.24	808.35	598.34	106.54	744.84	564.67	115.71	784.51	686.11	95.013	800.74	494.71	108.77	829.24	482.93	234.74	692.63	312.59	91.553	731.49	208.72	91.848	674.11	237.34	92.081	750.61	283.44	89.201	666.04	107.05	90.063	685.22	106.24	177.06	592.1	78.03	132.41	604.67	46.293	164.52	596.75	48.075	100.52	770.49	41.098	52.02	804.59	47.067	156.24	856.81	57.628	107.56	653.16	1471.6	303.9	572.21	1263.9	291.78
302	1.2542	850.48	1247.3	302.93	721.43	1409.1	450.14	731.13	1432.6	143.8	719.32	1726.1	350.31	764.77	961.89	414.91	766.88	974.08	182.62	570.78	1025.7	329.73	580.3	1028.3	247.47	683.67	905.75	492.5	694.07	921.52	122.32	687.86	1061.9	459.28	715.52	1062.5	153.88	544.66	1000.2	291.65	738.08	711.42	523.15	815.99	648.32	498.44	758.39	623.57	527.61	797.24	737.49	488.35	791.76	497.95	506.34	794.77	488.35	379.93	674.3	298.36	521.59	722.04	219.96	517.33	656.12	226.32	524.3	746.48	293.08	516.68	644.67	112.3	513.71	668.41	110.15	436.16	581.96	63.695	467.01	595.1	36.473	440.92	582.75	39.451	501.56	748.73	38.838	567.4	789.46	44.695	462.72	842.74	61.573	512.17	713.32	654.7	105.26	808.35	598.34	106.55	744.85	564.67	115.71	784.51	686.11	95.025	800.74	494.71	108.78	829.25	482.92	234.74	692.63	312.59	91.556	731.5	208.72	91.852	674.11	237.34	92.084	750.61	283.43	89.205	666.04	107.05	90.063	685.22	106.24	177.06	592.1	78.03	132.41	604.67	46.291	164.52	596.75	48.075	100.52	770.49	41.102	52.017	804.59	47.069	156.24	856.81	57.628	107.56	653.17	1471.6	303.89	572.23	1263.9	291.79
303	1.2583	850.51	1247.2	302.93	721.47	1409	450.14	731.16	1432.6	143.8	719.35	1726	350.3	764.78	961.87	414.91	766.88	974.06	182.63	570.78	1025.7	329.75	580.3	1028.3	247.49	683.68	905.74	492.51	694.06	921.5	122.33	687.87	1061.9	459.29	715.52	1062.5	153.9	544.67	1000.2	291.67	738.09	711.4	523.15	816	648.32	498.44	758.41	623.56	527.62	797.25	737.48	488.36	791.78	497.94	506.35	794.79	488.35	379.93	674.31	298.36	521.59	722.05	219.95	517.33	656.13	226.31	524.3	746.49	293.07	516.68	644.67	112.3	513.71	668.42	110.15	436.16	581.96	63.695	467.01	595.1	36.473	440.92	582.75	39.452	501.56	748.73	38.837	567.4	789.46	44.694	462.72	842.74	61.569	512.17	713.32	654.7	105.27	808.35	598.33	106.56	744.85	564.66	115.72	784.5	686.1	95.035	800.75	494.71	108.79	829.26	482.92	234.75	692.64	312.58	91.559	731.5	208.71	91.855	674.11	237.34	92.086	750.61	283.43	89.208	666.04	107.05	90.064	685.23	106.23	177.06	592.1	78.029	132.41	604.67	46.288	164.52	596.75	48.074	100.52	770.49	41.105	52.015	804.59	47.07	156.23	856.81	57.627	107.56	653.18	1471.5	303.88	572.25	1263.8	291.81
304	1.2625	850.54	1247.2	302.94	721.51	1409	450.15	731.19	1432.5	143.81	719.38	1726	350.29	764.78	961.85	414.92	766.88	974.05	182.64	570.79	1025.7	329.77	580.3	1028.3	247.5	683.68	905.72	492.53	694.06	921.49	122.34	687.89	1061.9	459.29	715.53	1062.5	153.93	544.67	1000.2	291.69	738.1	711.39	523.16	816.01	648.32	498.45	758.42	623.55	527.62	797.26	737.47	488.37	791.8	497.94	506.36	794.8	488.34	379.94	674.32	298.36	521.6	722.06	219.95	517.33	656.14	226.31	524.31	746.5	293.07	516.68	644.68	112.3	513.71	668.42	110.15	436.16	581.96	63.695	467.01	595.1	36.474	440.92	582.75	39.452	501.56	748.73	38.836	567.4	789.46	44.692	462.72	842.74	61.565	512.17	713.32	654.69	105.27	808.35	598.33	106.56	744.85	564.65	115.73	784.5	686.1	95.046	800.75	494.7	108.79	829.26	482.91	234.75	692.65	312.58	91.561	731.5	208.71	91.858	674.12	237.34	92.088	750.62	283.43	89.211	666.04	107.05	90.064	685.23	106.23	177.07	592.1	78.029	132.41	604.67	46.286	164.52	596.75	48.073	100.52	770.49	41.108	52.013	804.59	47.071	156.23	856.81	57.626	107.56	653.19	1471.5	303.88	572.27	1263.8	291.82
305	1.2667	850.57	1247.2	302.94	721.54	1409	450.16	731.22	1432.5	143.81	719.42	1726	350.28	764.79	961.83	414.93	766.88	974.04	182.66	570.79	1025.7	329.79	580.3	1028.3	247.52	683.69	905.7	492.54	694.05	921.48	122.36	687.91	1061.9	459.29	715.53	1062.5	153.95	544.67	1000.2	291.71	738.11	711.38	523.17	816.02	648.32	498.45	758.43	623.55	527.63	797.27	737.47	488.37	791.81	497.93	506.36	794.82	488.34	379.94	674.34	298.35	521.61	722.06	219.94	517.34	656.15	226.31	524.31	746.52	293.06	516.69	644.68	112.3	513.71	668.42	110.15	436.16	581.96	63.695	467.01	595.1	36.474	440.92	582.75	39.452	501.56	748.73	38.836	567.4	789.46	44.69	462.72	842.75	61.561	512.17	713.31	654.69	105.28	808.35	598.32	106.57	744.84	564.64	115.74	784.5	686.09	95.056	800.75	494.7	108.8	829.26	482.9	234.76	692.65	312.58	91.563	731.51	208.71	91.86	674.12	237.34	92.089	750.62	283.43	89.214	666.05	107.05	90.064	685.23	106.23	177.07	592.1	78.029	132.41	604.68	46.284	164.52	596.75	48.073	100.52	770.49	41.11	52.011	804.6	47.072	156.23	856.81	57.625	107.56	653.21	1471.5	303.88	572.28	1263.8	291.83
